<svg viewBox="0 0 16 16" xmlns="http://www.w3.org/2000/svg" xmlns:xlink="http://www.w3.org/1999/xlink" width="16.000000" height="16.000000" fill="none">
	<rect id="智能体" width="16.000000" height="16.000000" x="0.000000" y="0.000000" />
	<g id="ic_public_tv-电视/base/ic_public_tv">
		<path id="path1" d="M0.501823 7.99389C0.501823 6.8222 0.497722 5.6505 0.501823 4.47881C0.499465 3.91183 0.569153 3.34684 0.709212 2.79743C1.0162 1.63452 1.7737 0.944393 2.93543 0.676661C3.51794 0.550805 4.11291 0.491839 4.70879 0.500907C6.95571 0.500907 9.20282 0.500907 11.4501 0.500907C12.0177 0.497384 12.5836 0.562295 13.1356 0.694236C14.3325 0.98716 15.0507 1.74525 15.3243 2.93803C15.4473 3.50176 15.5061 4.07761 15.4995 4.65456C15.4995 6.9257 15.4995 9.19703 15.4995 11.4686C15.5026 12.0306 15.4379 12.591 15.3068 13.1376C15.0138 14.3351 14.2522 15.0498 13.0594 15.3234C12.4769 15.4488 11.882 15.5078 11.2861 15.4992C9.04855 15.4992 6.8112 15.4992 4.57404 15.4992C4.00215 15.5038 3.43176 15.4399 2.87509 15.3088C1.67293 15.0159 0.951167 14.2543 0.678163 13.0556C0.538731 12.4463 0.501823 11.8353 0.501823 11.219C0.501823 10.1441 0.501823 9.06912 0.501823 7.99389Z" fill="rgb(255,255,255)" fill-opacity="0" fill-rule="nonzero" />
		<path id="path1" d="M0.501823 4.47881C0.499465 3.91183 0.569153 3.34684 0.709212 2.79743C1.0162 1.63452 1.7737 0.944393 2.93543 0.676661C3.51794 0.550805 4.11291 0.491839 4.70879 0.500907C6.95571 0.500907 9.20282 0.500907 11.4501 0.500907C12.0177 0.497384 12.5836 0.562295 13.1356 0.694236C14.3325 0.98716 15.0507 1.74525 15.3243 2.93803C15.4473 3.50176 15.5061 4.07761 15.4995 4.65456C15.4995 6.9257 15.4995 9.19703 15.4995 11.4686C15.5026 12.0306 15.4379 12.591 15.3068 13.1376C15.0138 14.3351 14.2522 15.0498 13.0594 15.3234C12.4769 15.4488 11.882 15.5078 11.2861 15.4992C9.04855 15.4992 6.8112 15.4992 4.57404 15.4992C4.00215 15.5038 3.43176 15.4399 2.87509 15.3088C1.67293 15.0159 0.951167 14.2543 0.678163 13.0556C0.538731 12.4463 0.501823 11.8353 0.501823 11.219C0.501823 10.1441 0.501823 9.06912 0.501823 7.99389C0.501823 6.8222 0.497722 5.6505 0.501823 4.47881Z" fill-rule="nonzero" stroke="rgb(255,255,255)" stroke-opacity="0" stroke-width="1" />
		<path id="path2" d="M0.501823 4.47881C0.499465 3.91183 0.569153 3.34684 0.709212 2.79743C1.0162 1.63452 1.7737 0.944393 2.93543 0.676661C3.51794 0.550805 4.11291 0.491839 4.70879 0.500907C6.95571 0.500907 9.20282 0.500907 11.4501 0.500907C12.0177 0.497384 12.5836 0.562295 13.1356 0.694236C14.3325 0.98716 15.0507 1.74525 15.3243 2.93803C15.4473 3.50176 15.5061 4.07761 15.4995 4.65456C15.4995 6.9257 15.4995 9.19703 15.4995 11.4686C15.5026 12.0306 15.4379 12.591 15.3068 13.1376C15.0138 14.3351 14.2522 15.0498 13.0594 15.3234C12.4769 15.4488 11.882 15.5078 11.2861 15.4992C9.04855 15.4992 6.8112 15.4992 4.57404 15.4992C4.00215 15.5038 3.43176 15.4399 2.87509 15.3088C1.67293 15.0159 0.951167 14.2543 0.678163 13.0556C0.538731 12.4463 0.501823 11.8353 0.501823 11.219C0.501823 10.1441 0.501823 9.06912 0.501823 7.99389C0.501823 6.8222 0.497722 5.6505 0.501823 4.47881Z" opacity="0.200000003" fill-rule="nonzero" stroke="rgb(255,255,255)" stroke-opacity="0" stroke-width="1" />
		<circle id="path3" cx="8" cy="8" r="8" fill="rgb(255,255,255)" fill-opacity="0" />
		<path id="path4" d="M2.5 14L13.5 14M8 14L8 12" stroke="rgb(25,25,25)" stroke-linecap="round" stroke-linejoin="round" stroke-width="1" />
		<path id="path5" d="M8.2 14L13.5 14C13.6105 14 13.7 14.0896 13.7 14.2C13.7 14.3105 13.6105 14.4 13.5 14.4L2.5 14.4C2.38955 14.4 2.3 14.3105 2.3 14.2C2.3 14.0896 2.38955 14 2.5 14L7.8 14.0004L7.8 12C7.8 11.8896 7.88955 11.8 8 11.8C8.11046 11.8 8.2 11.8896 8.2 12L8.2 14Z" fill="rgb(255,255,255)" fill-opacity="0" fill-rule="nonzero" />
		<path id="path5" d="M13.5 14C13.6105 14 13.7 14.0896 13.7 14.2C13.7 14.3105 13.6105 14.4 13.5 14.4L2.5 14.4C2.38955 14.4 2.3 14.3105 2.3 14.2C2.3 14.0896 2.38955 14 2.5 14L7.8 14.0004L7.8 12C7.8 11.8896 7.88955 11.8 8 11.8C8.11046 11.8 8.2 11.8896 8.2 12L8.2 14L13.5 14Z" fill-rule="nonzero" stroke="rgb(255,255,255)" stroke-opacity="0" stroke-linejoin="round" stroke-width="1" />
		<path id="path6" d="M8.00001 11.9999L2.60001 11.9999C1.49544 11.9999 0.600006 11.1045 0.600006 9.99992L0.600006 3.33325C0.600006 2.22868 1.49544 1.33325 2.60001 1.33325L13.4 1.33325C14.5046 1.33325 15.4 2.22868 15.4 3.33325L15.4 9.99992C15.4 11.1045 14.5046 11.9999 13.4 11.9999L10 11.9999" fill-rule="evenodd" stroke="rgb(25,25,25)" stroke-linecap="round" stroke-linejoin="round" stroke-width="1" />
		<path id="path7" d="M0.600006 9.99992L0.600006 3.33325C0.600006 2.22868 1.49544 1.33325 2.60001 1.33325L13.4 1.33325C14.5046 1.33325 15.4 2.22868 15.4 3.33325L15.4 9.99992C15.4 11.1045 14.5046 11.9999 13.4 11.9999L2.60001 11.9999C1.49544 11.9999 0.600006 11.1045 0.600006 9.99992Z" fill="rgb(255,255,255)" fill-opacity="0" fill-rule="evenodd" />
		<path id="path7" d="M0.600006 3.33325C0.600006 2.22868 1.49544 1.33325 2.60001 1.33325L13.4 1.33325C14.5046 1.33325 15.4 2.22868 15.4 3.33325L15.4 9.99992C15.4 11.1045 14.5046 11.9999 13.4 11.9999L2.60001 11.9999C1.49544 11.9999 0.600006 11.1045 0.600006 9.99992L0.600006 3.33325Z" fill-rule="evenodd" stroke="rgb(255,255,255)" stroke-opacity="0" stroke-linejoin="round" stroke-width="1" />
	</g>
</svg>
