<svg viewBox="0 0 28 28" xmlns="http://www.w3.org/2000/svg" xmlns:xlink="http://www.w3.org/1999/xlink" width="28.000000" height="28.000000" fill="none" customFrame="url(#clipPath_9)">
	<defs>
		<clipPath id="clipPath_9">
			<rect width="28.000000" height="28.000000" x="0.000000" y="0.000000" rx="14.000000" fill="rgb(255,255,255)" />
		</clipPath>
		<clipPath id="clipPath_10">
			<rect width="20.000000" height="20.000000" x="4.000000" y="4.000000" fill="rgb(255,255,255)" />
		</clipPath>
	</defs>
	<rect id="外观4" width="28.000000" height="28.000000" x="0.000000" y="0.000000" rx="14.000000" />
	<g id="亮色模式-light" clip-path="url(#clipPath_10)" customFrame="url(#clipPath_10)">
		<rect id="亮色模式-light" width="20.000000" height="20.000000" x="4.000000" y="4.000000" />
		<path id="形状结合" d="M14 20.25C14.3452 20.25 14.625 20.5298 14.625 20.875L14.625 22.125C14.625 22.4702 14.3452 22.75 14 22.75C13.6548 22.75 13.375 22.4702 13.375 22.125L13.375 20.875C13.375 20.5298 13.6548 20.25 14 20.25ZM9.58058 18.4194C9.82466 18.6635 9.82466 19.0592 9.58058 19.3033L8.6967 20.1872C8.45262 20.4313 8.05689 20.4313 7.81282 20.1872C7.56874 19.9431 7.56874 19.5474 7.81282 19.3033L8.6967 18.4194C8.94078 18.1753 9.3365 18.1753 9.58058 18.4194ZM19.3033 18.4194L20.1872 19.3033C20.4313 19.5474 20.4313 19.9431 20.1872 20.1872C19.9431 20.4313 19.5474 20.4313 19.3033 20.1872L18.4194 19.3033C18.1753 19.0592 18.1753 18.6635 18.4194 18.4194C18.6635 18.1753 19.0592 18.1753 19.3033 18.4194ZM14 9C16.7614 9 19 11.2386 19 14C19 16.7614 16.7614 19 14 19C11.2386 19 9 16.7614 9 14C9 11.2386 11.2386 9 14 9ZM14 10.25C11.9289 10.25 10.25 11.9289 10.25 14C10.25 16.0711 11.9289 17.75 14 17.75C16.0711 17.75 17.75 16.0711 17.75 14C17.75 11.9289 16.0711 10.25 14 10.25ZM7.125 13.375C7.47018 13.375 7.75 13.6548 7.75 14C7.75 14.3452 7.47018 14.625 7.125 14.625L5.875 14.625C5.52982 14.625 5.25 14.3452 5.25 14C5.25 13.6548 5.52982 13.375 5.875 13.375L7.125 13.375ZM22.125 13.375C22.4702 13.375 22.75 13.6548 22.75 14C22.75 14.3452 22.4702 14.625 22.125 14.625L20.875 14.625C20.5298 14.625 20.25 14.3452 20.25 14C20.25 13.6548 20.5298 13.375 20.875 13.375L22.125 13.375ZM20.1872 7.81282C20.4313 8.05689 20.4313 8.45262 20.1872 8.6967L19.3033 9.58058C19.0592 9.82466 18.6635 9.82466 18.4194 9.58058C18.1753 9.3365 18.1753 8.94078 18.4194 8.6967L19.3033 7.81282C19.5474 7.56874 19.9431 7.56874 20.1872 7.81282ZM8.6967 7.81282L9.58058 8.6967C9.82466 8.94078 9.82466 9.3365 9.58058 9.58058C9.3365 9.82466 8.94078 9.82466 8.6967 9.58058L7.81282 8.6967C7.56874 8.45262 7.56874 8.05689 7.81282 7.81282C8.05689 7.56874 8.45262 7.56874 8.6967 7.81282ZM14 5.25C14.3452 5.25 14.625 5.52982 14.625 5.875L14.625 7.125C14.625 7.47018 14.3452 7.75 14 7.75C13.6548 7.75 13.375 7.47018 13.375 7.125L13.375 5.875C13.375 5.52982 13.6548 5.25 14 5.25Z" fill="rgb(25,25,25)" fill-rule="evenodd" />
	</g>
</svg>
