<svg viewBox="0 0 28 28" xmlns="http://www.w3.org/2000/svg" xmlns:xlink="http://www.w3.org/1999/xlink" width="28.000000" height="28.000000" fill="none" customFrame="url(#clipPath_5)">
	<defs>
		<clipPath id="clipPath_5">
			<rect width="28.000000" height="28.000000" x="0.000000" y="0.000000" rx="14.000000" fill="rgb(255,255,255)" />
		</clipPath>
		<clipPath id="clipPath_6">
			<rect width="20.000000" height="20.000000" x="4.000000" y="4.000000" fill="rgb(255,255,255)" />
		</clipPath>
	</defs>
	<rect id="外观2" width="28.000000" height="28.000000" x="0.000000" y="0.000000" rx="14.000000" />
	<g id="暗色模式-dark" clip-path="url(#clipPath_6)" customFrame="url(#clipPath_6)">
		<rect id="暗色模式-dark" width="20.000000" height="20.000000" x="4.000000" y="4.000000" />
		<path id="路径" d="M13.3096 5.87744C11.5594 6.02823 9.901 6.73758 8.56797 7.93784C5.22756 10.9456 4.95786 16.0918 7.96558 19.4322C10.9733 22.7726 16.1195 23.0423 19.4599 20.0346C20.1893 19.3778 20.7853 18.6069 21.2308 17.7542C21.4592 17.3168 21.1146 16.7997 20.6231 16.8421C18.4831 17.0268 16.3702 16.2149 14.9056 14.5884C12.9644 12.4325 12.5965 9.31924 13.9173 6.78938C14.1456 6.3521 13.8011 5.8351 13.3096 5.87744ZM12.3375 7.30263L12.3071 7.39064C11.3908 10.1243 11.9774 13.2043 13.9767 15.4248L14.1583 15.6201C15.5714 17.0908 17.4517 17.9523 19.4301 18.0963L19.5375 18.1018L19.4637 18.2022C19.2133 18.525 18.9326 18.8273 18.6235 19.1056C15.7961 21.6514 11.4403 21.4231 8.89451 18.5958C6.34873 15.7684 6.577 11.4126 9.40439 8.86677C10.1807 8.16781 11.0859 7.66596 12.0572 7.37909L12.3375 7.30263Z" fill="rgb(25,25,25)" fill-rule="nonzero" />
	</g>
</svg>
