<svg viewBox="0 0 28 28" xmlns="http://www.w3.org/2000/svg" xmlns:xlink="http://www.w3.org/1999/xlink" width="28.000000" height="28.000000" fill="none" customFrame="url(#clipPath_3)">
	<defs>
		<clipPath id="clipPath_3">
			<rect width="28.000000" height="28.000000" x="0.000000" y="0.000000" rx="14.000000" fill="rgb(255,255,255)" />
		</clipPath>
		<clipPath id="clipPath_4">
			<rect width="20.000000" height="20.000000" x="4.000000" y="4.000000" fill="rgb(255,255,255)" />
		</clipPath>
	</defs>
	<rect id="外观1" width="28.000000" height="28.000000" x="0.000000" y="0.000000" rx="14.000000" />
	<g id="本地-local" clip-path="url(#clipPath_4)" customFrame="url(#clipPath_4)">
		<rect id="本地-local" width="20.000000" height="20.000000" x="4.000000" y="4.000000" />
		<path id="形状结合" d="M19.8333 5.875L8.16667 5.875C6.90101 5.875 5.875 6.90101 5.875 8.16667L5.875 16.5C5.875 17.7657 6.90101 18.7917 8.16667 18.7917L19.8333 18.7917C21.099 18.7917 22.125 17.7657 22.125 16.5L22.125 8.16667C22.125 6.90101 21.099 5.875 19.8333 5.875ZM19.8333 7.125C20.4086 7.125 20.875 7.59137 20.875 8.16667L20.875 16.5C20.875 17.0753 20.4086 17.5417 19.8333 17.5417L8.16667 17.5417C7.59137 17.5417 7.125 17.0753 7.125 16.5L7.125 8.16667C7.125 7.59137 7.59137 7.125 8.16667 7.125L19.8333 7.125ZM18.5833 20.4583C18.9285 20.4583 19.2083 20.7382 19.2083 21.0833C19.2083 21.4285 18.9285 21.7083 18.5833 21.7083L9.41667 21.7083C9.07149 21.7083 8.79167 21.4285 8.79167 21.0833C8.79167 20.7382 9.07149 20.4583 9.41667 20.4583L18.5833 20.4583Z" fill="rgb(25,25,25)" fill-rule="nonzero" />
	</g>
</svg>
