<svg viewBox="0 0 16 16" xmlns="http://www.w3.org/2000/svg" xmlns:xlink="http://www.w3.org/1999/xlink" width="16.000000" height="16.000000" fill="none" customFrame="#000000">
	<rect id="定时任务" width="16.000000" height="16.000000" x="0.000000" y="0.000000" />
	<path id="合并" d="M11.5605 0.439331C11.6095 0.493919 11.7116 0.612284 11.7515 0.672485C11.7988 0.745298 11.8476 0.834672 11.8818 0.916016C11.9185 1.00232 11.9465 1.09058 11.9661 1.18066C11.9888 1.28467 12 1.39111 12 1.5L12 2.5C12 2.60889 11.9888 2.71545 11.9661 2.81934C11.9465 2.90942 11.9185 2.99768 11.8818 3.08398C11.8455 3.17004 11.802 3.25134 11.7512 3.328C11.7112 3.38827 11.6669 3.44559 11.618 3.5C11.5463 3.5719 11.4111 3.69617 11.3279 3.75122C11.2515 3.802 11.1702 3.84546 11.084 3.88196C10.9976 3.91846 10.9089 3.94666 10.8188 3.96619C10.7151 3.98877 10.6086 4 10.5 4L5.5 4C5.39111 4 5.28467 3.98865 5.18066 3.96606C5.09058 3.94653 5.00244 3.91846 4.91602 3.88196C4.82983 3.84546 4.74854 3.802 4.67212 3.75122C4.58887 3.69617 4.51123 3.63257 4.43945 3.56067C4.39063 3.50626 4.28878 3.38827 4.24878 3.328C4.198 3.25134 4.15454 3.17004 4.11816 3.08398C4.08154 2.99768 4.05347 2.90942 4.03394 2.81934C4.01123 2.71533 4 2.60889 4 2.5L4 1.5C4 1.39111 4.01123 1.28467 4.03394 1.18066C4.05347 1.09058 4.08154 1.00244 4.11816 0.916016C4.15454 0.829956 4.198 0.748535 4.24878 0.671997C4.28878 0.611729 4.33315 0.554412 4.38197 0.5C4.45374 0.428101 4.58887 0.303833 4.67212 0.248779C4.74854 0.197998 4.82983 0.154541 4.91602 0.118042C5.00244 0.081543 5.09058 0.0534668 5.18066 0.0339355C5.28467 0.0113525 5.39111 0 5.5 0L10.5 0C10.6089 0 10.7153 0.0113525 10.8193 0.0339355C10.9094 0.0534668 10.9976 0.081543 11.084 0.118042C11.1702 0.154541 11.2515 0.197998 11.3279 0.248779C11.4111 0.303833 11.4888 0.367432 11.5605 0.439331ZM10.5 1L5.5 1C5.43091 1 5.36694 1.01221 5.30811 1.03662C5.24902 1.06104 5.19531 1.09766 5.14648 1.14648C5.09766 1.19531 5.06104 1.24915 5.03662 1.30811C5.01221 1.36694 5 1.43091 5 1.5L5 2.5C5 2.56897 5.01221 2.63306 5.03662 2.69189C5.06104 2.75085 5.09766 2.80469 5.14648 2.85352C5.19531 2.90234 5.24902 2.93896 5.30811 2.96338C5.36694 2.98779 5.43091 3 5.5 3L10.5 3C10.5691 3 10.6331 2.98779 10.6919 2.96338C10.751 2.93896 10.8047 2.90234 10.8535 2.85352C10.9023 2.80469 10.939 2.75073 10.9634 2.69189C10.9878 2.63306 11 2.56897 11 2.5L11 1.5C11 1.43091 10.9878 1.36682 10.9634 1.30798C10.939 1.24915 10.9023 1.19531 10.8535 1.14648C10.8047 1.09766 10.7507 1.06104 10.6919 1.03662C10.6331 1.01221 10.5691 1 10.5 1ZM3.15991 2.53845C3.10644 2.55083 3.05358 2.56622 3.00139 2.58465C2.93729 2.61176 2.79059 2.67588 2.73165 2.71104C2.64473 2.76768 2.5144 2.86438 2.43945 2.93933C2.36426 3.01428 2.29858 3.09534 2.24194 3.18225C2.20477 3.23925 2.17167 3.29879 2.14244 3.36089C2.12408 3.40419 2.08314 3.50335 2.06909 3.54764C2.05736 3.58465 2.04711 3.62199 2.03833 3.65967C2.0127 3.77014 2 3.88354 2 4L2 13.5C2.00149 13.6088 2.0143 13.7368 2.03833 13.8403C2.05076 13.8937 2.06614 13.9464 2.08452 13.9984C2.09567 14.0247 2.14062 14.1359 2.15308 14.1613C2.17964 14.2154 2.20921 14.2676 2.24194 14.3177C2.29858 14.4047 2.36426 14.4857 2.43945 14.5607C2.5144 14.6356 2.59521 14.7014 2.68213 14.7581C2.75586 14.806 2.83398 14.8475 2.91626 14.8823C2.97527 14.9042 3.09923 14.9475 3.15991 14.9615C3.25808 14.9844 3.35875 14.997 3.46159 14.9995L12.5 15C12.6086 14.9985 12.7366 14.9856 12.8401 14.9615C12.9014 14.9474 12.9619 14.9292 13.0215 14.9071C13.0606 14.8905 13.161 14.8477 13.1982 14.8282C13.2393 14.8066 13.2792 14.7832 13.3179 14.7581C13.4048 14.7014 13.4856 14.6356 13.5605 14.5607C13.6357 14.4857 13.7014 14.4047 13.7581 14.3177C13.7946 14.2617 13.8272 14.2032 13.8561 14.1422C13.8757 14.096 13.919 13.9908 13.9337 13.9435C13.9443 13.9094 13.9536 13.875 13.9617 13.8403C13.9847 13.7409 13.9973 13.6391 13.9996 13.5348L14 4C13.9972 3.89877 13.9841 3.75633 13.9617 3.65967C13.9424 3.5769 13.916 3.49573 13.8823 3.41626C13.8558 3.36218 13.7908 3.23238 13.7581 3.18225C13.7014 3.09534 13.6357 3.01428 13.5605 2.93933C13.4856 2.86438 13.4048 2.79858 13.3179 2.74194C13.2578 2.70587 13.1492 2.64535 13.0837 2.61768C13.0316 2.59925 12.8936 2.55084 12.8401 2.53845C12.7417 2.51559 12.6407 2.50292 12.5376 2.50044L12.5 1.5C12.6703 1.5 12.837 1.51655 13 1.54975C13.1089 1.57364 13.2549 1.61325 13.3603 1.65205C13.3916 1.66385 13.4422 1.68354 13.4731 1.69666C13.5609 1.73495 13.6724 1.7893 13.7541 1.83662C13.7668 1.84455 13.8517 1.89623 13.8642 1.90439C13.9932 1.99219 14.1554 2.11996 14.2677 2.23222C14.2878 2.25434 14.3887 2.36152 14.4081 2.38432C14.4686 2.45732 14.5437 2.55632 14.5959 2.63627C14.6586 2.73244 14.7147 2.83329 14.7641 2.93881C14.7864 2.99135 14.8459 3.13225 14.8644 3.18565C14.8803 3.23805 14.9231 3.37926 14.9356 3.43271C14.9437 3.46786 14.9511 3.50316 14.9577 3.53859C14.9859 3.68972 15 3.84362 15 4L15 13.5C14.9962 13.6447 14.9793 13.8557 14.9511 13.9955C14.9325 14.0755 14.8947 14.2251 14.8684 14.3025C14.8492 14.3585 14.8266 14.4181 14.8032 14.4733C14.7531 14.5809 14.6595 14.7661 14.5956 14.8641C14.5608 14.9175 14.5241 14.9694 14.4854 15.0198C14.4183 15.1073 14.3452 15.1904 14.2665 15.2689C14.1773 15.3582 14.0824 15.4398 13.982 15.5139C13.9436 15.5422 13.9039 15.5698 13.8639 15.5959C13.8156 15.6272 13.7664 15.6569 13.7162 15.6848C13.6805 15.7047 13.6441 15.7238 13.6075 15.7419C13.5635 15.7636 13.5187 15.7841 13.4731 15.8033C13.4378 15.8183 13.4022 15.8324 13.3664 15.8457C13.3204 15.8628 13.2739 15.8784 13.227 15.8926C13.1738 15.9088 13.12 15.9232 13.0657 15.9358C12.928 15.963 12.708 15.9956 12.5656 15.9992L3.5 16C3.34402 16 3.19066 15.986 3.03992 15.9579C3.00434 15.9512 2.96892 15.9438 2.93364 15.9356C2.86496 15.9169 2.70613 15.8724 2.63907 15.8477C2.60779 15.8359 2.55783 15.8165 2.52686 15.8033C2.46347 15.7765 2.40169 15.7474 2.34146 15.716C2.29759 15.6911 2.1791 15.6238 2.13675 15.5962C2.02365 15.5156 1.83192 15.3674 1.73235 15.2678C1.71655 15.2504 1.61749 15.1455 1.60221 15.1277C1.54171 15.0547 1.45626 14.9437 1.40415 14.8637C1.34141 14.7676 1.28532 14.6667 1.23587 14.5612C1.21351 14.5085 1.15398 14.3674 1.13546 14.3138C1.11955 14.2614 1.07687 14.1207 1.06443 14.0673C1.05626 14.0321 1.04887 13.9968 1.04226 13.9613C1.01409 13.8102 1 13.6564 1 13.5L1 4C1 3.83148 1.0163 3.66625 1.0489 3.5043C1.06784 3.42302 1.10603 3.27241 1.13285 3.19382C1.15055 3.14327 1.17566 3.07652 1.19678 3.02673C1.2471 2.91852 1.34015 2.73437 1.40439 2.6359C1.43922 2.58244 1.476 2.53048 1.51473 2.48C1.58182 2.39255 1.65474 2.30957 1.7335 2.23108C1.82269 2.14188 1.91747 2.06027 2.01784 1.98623C2.05644 1.95775 2.09589 1.93038 2.13615 1.90415C2.22861 1.84852 2.39962 1.75199 2.5 1.70819C2.6416 1.64825 2.81323 1.59045 2.96094 1.55798C3.12405 1.52481 3.32977 1.5 3.5 1.5L3.5 2.5C3.38379 2.5 3.27026 2.51282 3.15991 2.53845ZM7.28589 10.5046L6.49789 9.88896L5.27295 8.93188C5.05225 8.75952 4.74341 8.79749 4.57104 9.01807C4.39868 9.23877 4.43652 9.54761 4.65723 9.71997L6.83825 11.4239L7.06421 11.6005C7.11865 11.6429 7.17651 11.6727 7.23804 11.6897C7.29956 11.7068 7.3645 11.7111 7.43286 11.7026C7.50146 11.6943 7.56348 11.6743 7.6189 11.6429C7.67456 11.6116 7.72363 11.5686 7.76611 11.5143L8.32056 10.8045L11.0496 7.31116C11.2219 7.09045 11.1841 6.78162 10.9634 6.60925C10.7427 6.43689 10.4338 6.47485 10.2615 6.69543L7.9015 9.71659L7.52655 10.1966L7.28589 10.5046Z" fill="rgb(25,25,25)" fill-rule="evenodd" />
</svg>
