<svg viewBox="0 0 16 16" xmlns="http://www.w3.org/2000/svg" xmlns:xlink="http://www.w3.org/1999/xlink" width="16.000000" height="16.000000" fill="none">
	<mask id="mask_2" width="16.000000" height="16.000000" x="0.000000" y="0.000000" maskUnits="userSpaceOnUse">
		<g filter="url(#pixso_custom_mask_type_alpha)">
			<g id="clip553_3370">
				<rect id="矩形 2" width="16.000000" height="16.000000" x="0.000000" y="0.000000" fill="rgb(0,0,0)" />
			</g>
		</g>
	</mask>
	<defs>
		<filter id="pixso_custom_mask_type_alpha">
			<feColorMatrix type="matrix" values="0 0 0 0 1 0 0 0 0 1 0 0 0 0 1 0 0 0 1 0 " />
		</filter>
	</defs>
	<mask id="mask_1" width="16.000000" height="16.000000" x="0.000000" y="0.000000" maskUnits="userSpaceOnUse">
		<g filter="url(#pixso_custom_mask_type_alpha)">
			<g id="clip553_3369">
				<rect id="矩形 3" width="16.000000" height="16.000000" x="0.000000" y="0.000000" fill="rgb(0,0,0)" />
			</g>
		</g>
	</mask>
	<rect id="对话" width="16.000000" height="16.000000" x="0.000000" y="0.000000" />
	<rect id="矩形 1" width="16.000000" height="16.000000" x="0.000000" y="0.000000" fill="rgb(255,255,255)" fill-opacity="0" />
	<g id="clip path group" mask="url(#mask_1)">
		<g id="组合 2">
			<g id="clip path group" mask="url(#mask_2)">
				<g id="组合 4">
					<path id="矢量 1" d="M1.37894e-06 7.99338C1.37894e-06 6.74338 -0.00333195 5.49338 1.37894e-06 4.24338C-0.00333195 3.63671 0.0733347 3.03338 0.220001 2.45005C0.546668 1.21005 1.35333 0.470047 2.59667 0.186714C3.21333 0.0533806 3.85333 -0.00995275 4.48667 4.72466e-05C6.88 4.72466e-05 9.27667 4.72466e-05 11.68 4.72466e-05C12.2833 -0.00328609 12.8867 0.0600472 13.4767 0.206714C14.7533 0.516714 15.52 1.32338 15.81 2.60005C15.9433 3.20005 16.0033 3.81005 15.9967 4.43005C15.9967 6.85338 15.9967 9.27671 15.9967 11.6967C16 12.2967 15.9333 12.8934 15.79 13.4767C15.4767 14.7567 14.6667 15.5167 13.3933 15.81C12.77 15.9434 12.1367 16.0067 11.5033 15.9967C9.11667 15.9967 6.72667 15.9967 4.34333 15.9967C3.73333 16.0034 3.12333 15.9334 2.53333 15.7934C1.25 15.4834 0.476668 14.67 0.186668 13.3867C0.0400014 12.74 1.37894e-06 12.09 1.37894e-06 11.4334C1.37894e-06 10.2867 1.37894e-06 9.13671 1.37894e-06 7.99338Z" fill="rgb(255,255,255)" fill-opacity="0" fill-rule="evenodd" />
					<circle id="椭圆 2" cx="8" cy="8" r="8" fill="rgb(255,255,255)" fill-opacity="0" />
				</g>
			</g>
			<path id="矢量 2" />
			<path id="矢量 3" d="M4 7.18672C4 6.74672 4.36 6.38672 4.8 6.38672C5.24333 6.38672 5.6 6.74672 5.6 7.18672C5.6 7.63005 5.24333 7.98672 4.8 7.98672C4.36 7.98672 4 7.63005 4 7.18672ZM7.2 7.18672C7.2 6.74672 7.56 6.38672 8 6.38672C8.44333 6.38672 8.8 6.74672 8.8 7.18672C8.8 7.63005 8.44333 7.98672 8 7.98672C7.56 7.98672 7.2 7.63005 7.2 7.18672ZM11.2 6.38672C10.76 6.38672 10.4 6.74672 10.4 7.18672C10.4 7.63005 10.76 7.98672 11.2 7.98672C11.6433 7.98672 12 7.63005 12 7.18672C12 6.74672 11.6433 6.38672 11.2 6.38672Z" fill="rgb(25,25,25)" fill-rule="evenodd" />
			<path id="矢量 4" d="M8.00033 1.16675C7.51844 1.16675 7.04372 1.2082 6.57616 1.2911C6.1213 1.37183 5.68027 1.49048 5.2531 1.64706C4.83458 1.80048 4.43674 1.98755 4.05956 2.20825C3.68716 2.42635 3.34211 2.67304 3.02441 2.94832C2.70811 3.22263 2.42518 3.51983 2.17562 3.83992C1.92485 4.16165 1.71267 4.50031 1.53906 4.85589C1.36306 5.21666 1.22981 5.58856 1.13932 5.97159C1.04665 6.36407 1.00032 6.76246 1.00032 7.16675C1.00032 7.6202 1.05853 8.06583 1.17496 8.50365C1.28835 8.93041 1.45491 9.34176 1.67464 9.73772C1.89143 10.1283 2.15505 10.4953 2.46549 10.8385C2.77539 11.181 3.12429 11.4915 3.5122 11.77C3.54315 11.7921 3.57121 11.8175 3.59636 11.8462C3.62152 11.8748 3.64312 11.9059 3.66116 11.9395C3.67918 11.973 3.6932 12.0082 3.7032 12.045C3.7132 12.0818 3.71892 12.1192 3.72036 12.1573L3.72883 12.3824C3.75434 13.0728 3.44949 13.7727 2.81429 14.4819C2.76632 14.5353 2.73236 14.5801 2.7124 14.6161C2.70838 14.6233 2.7061 14.6277 2.70556 14.6293C2.70914 14.6187 2.71137 14.6054 2.71223 14.5895C2.71202 14.5933 2.71196 14.5959 2.71207 14.5973C2.71185 14.5928 2.7112 14.5871 2.71012 14.5802C2.70317 14.5361 2.68527 14.4922 2.65641 14.4483C2.62548 14.4009 2.58984 14.366 2.54947 14.3437C2.54698 14.3424 2.54492 14.3413 2.54329 14.3406C2.54351 14.3407 2.54421 14.341 2.5454 14.3414C2.55213 14.344 2.56092 14.3469 2.57177 14.35C2.58599 14.3541 2.60926 14.3569 2.64159 14.3583C2.69021 14.3605 2.74864 14.3583 2.81689 14.3518C2.97466 14.337 3.17165 14.3002 3.40786 14.2415C4.41037 13.9925 5.2869 13.6416 6.03743 13.1886L6.18636 13.0987C6.23858 13.0672 6.2947 13.046 6.3547 13.035C6.4147 13.024 6.47468 13.024 6.53466 13.0349C7.01546 13.1228 7.50402 13.1668 8.00033 13.1668C8.48219 13.1668 8.95691 13.1253 9.42446 13.0424C9.87933 12.9617 10.3204 12.843 10.7476 12.6865C11.1661 12.533 11.5639 12.3459 11.9411 12.1253C12.3135 11.9071 12.6585 11.6605 12.9762 11.3852C13.2926 11.1109 13.5756 10.8137 13.825 10.4936C14.0758 10.1719 14.288 9.8332 14.4616 9.47762C14.6376 9.11684 14.7708 8.74493 14.8613 8.36188C14.954 7.96942 15.0003 7.57104 15.0003 7.16675C15.0003 6.76246 14.954 6.36407 14.8613 5.97159C14.7708 5.58856 14.6376 5.21666 14.4616 4.85589C14.288 4.50031 14.0758 4.16165 13.825 3.83992C13.5755 3.51983 13.2925 3.22263 12.9762 2.94832C12.6585 2.67304 12.3135 2.42635 11.9411 2.20825C11.5639 1.98755 11.1661 1.80048 10.7476 1.64706C10.3204 1.49048 9.87933 1.37183 9.42446 1.2911C8.95691 1.2082 8.48219 1.16675 8.00033 1.16675ZM8.00033 0.166748C8.54091 0.166748 9.07384 0.213352 9.59913 0.306559C10.1119 0.397488 10.6095 0.531331 11.0918 0.708089C11.5662 0.882026 12.0177 1.09443 12.4463 1.3453C12.8719 1.59454 13.2668 1.87703 13.631 2.19279C13.9966 2.50952 14.3242 2.85365 14.6138 3.22518C14.9073 3.60169 15.1561 3.9991 15.3604 4.41739C15.5689 4.84492 15.727 5.28644 15.8346 5.74195C15.9451 6.20993 16.0003 6.68486 16.0003 7.16675C16.0003 7.64862 15.9451 8.12355 15.8346 8.59155C15.727 9.04706 15.5689 9.48857 15.3604 9.91609C15.1561 10.3344 14.9073 10.7318 14.6138 11.1083C14.3243 11.4799 13.9967 11.824 13.631 12.1407C13.2668 12.4565 12.8719 12.739 12.4463 12.9882C12.0178 13.2391 11.5663 13.4515 11.0918 13.6254C10.6095 13.8022 10.1119 13.936 9.59913 14.027C9.07384 14.1202 8.54091 14.1668 8.00033 14.1668C7.44357 14.1668 6.89507 14.1174 6.35483 14.0187L6.44466 13.5268L6.70313 13.9548L6.55419 14.0447C5.71751 14.5498 4.74908 14.9389 3.64893 15.212C3.36442 15.2826 3.11854 15.3278 2.91129 15.3474C2.66585 15.3706 2.46039 15.3585 2.29492 15.311C2.20789 15.2859 2.13183 15.2554 2.06673 15.2195C1.96148 15.1615 1.87966 15.0878 1.82129 14.9983C1.73893 14.8732 1.70317 14.7175 1.71402 14.5313C1.72173 14.3995 1.76307 14.266 1.83805 14.1308C1.89436 14.0294 1.97146 13.924 2.06933 13.8145C2.52506 13.3059 2.74517 12.8411 2.72965 12.4202L2.72119 12.1951L3.2207 12.1762L2.92936 12.5825C2.4835 12.2625 2.08165 11.9048 1.72379 11.5094C1.36203 11.1094 1.05414 10.6806 0.800125 10.2229C0.54036 9.75468 0.343149 9.26727 0.208491 8.76065C0.0697106 8.23863 0.000320435 7.70733 0.000320435 7.16675C0.000320435 6.68486 0.0555505 6.20993 0.166011 5.74195C0.273649 5.28644 0.431744 4.84492 0.640295 4.41739C0.844504 3.9991 1.09336 3.60169 1.38687 3.22518C1.67637 2.85365 2.00396 2.50952 2.36963 2.19279C2.73388 1.87703 3.1288 1.59454 3.55436 1.3453C3.98296 1.09443 4.43446 0.882026 4.90886 0.708089C5.39117 0.531331 5.88873 0.397488 6.40153 0.306559C6.92682 0.213352 7.45975 0.166748 8.00033 0.166748Z" fill="rgb(25,25,25)" fill-rule="nonzero" />
			<path id="矢量 5" d="M7.99933 0.16626C9.37613 0.16626 10.6276 0.431885 11.7539 0.962971L11.7559 0.963948C12.4248 1.27959 13.0495 1.68905 13.63 2.1923C14.581 3.01642 15.2457 3.94529 15.6242 4.97891C15.8743 5.66218 15.9993 6.39135 15.9993 7.16625C15.9993 7.94115 15.8742 8.67031 15.624 9.35358L15.6235 9.35505C15.2451 10.3883 14.5806 11.3167 13.63 12.1402C13.049 12.6439 12.4237 13.0536 11.7539 13.3695C10.6276 13.9006 9.37613 14.1662 7.99933 14.1662C7.50749 14.1662 7.02196 14.1277 6.54296 14.0507C5.70866 14.5528 4.74366 14.9397 3.64793 15.2117C3.04052 15.3625 2.58919 15.3956 2.29394 15.3106C2.07259 15.2468 1.91454 15.1423 1.82015 14.9976C1.73795 14.8726 1.7023 14.717 1.71305 14.531C1.7264 14.3031 1.84488 14.0642 2.06852 13.8144C2.51871 13.3118 2.73893 12.852 2.72916 12.435C1.6633 11.6271 0.909608 10.6901 0.468095 9.62378L0.467932 9.62328L0.467768 9.62282C0.155485 8.86857 -0.000656128 8.04972 -0.000656128 7.16625C-0.000656128 6.39129 0.124399 5.66218 0.374508 4.97891C0.752979 3.94529 1.41769 3.01642 2.36865 2.1923C2.94916 1.68915 3.57389 1.2797 4.24283 0.963948L4.24479 0.962971L4.24526 0.962808C5.37146 0.431776 6.62282 0.16626 7.99933 0.16626ZM4.80273 6.38908C4.361 6.38908 4.00276 6.74715 4.00276 7.18905C4.00276 7.63078 4.361 7.98902 4.80273 7.98902C5.24446 7.98902 5.60269 7.63078 5.60269 7.18905C5.60269 6.74715 5.24446 6.38908 4.80273 6.38908ZM8.00276 6.38908C7.56086 6.38908 7.2028 6.74715 7.2028 7.18905C7.2028 7.63078 7.56086 7.98902 8.00276 7.98902C8.4445 7.98902 8.80273 7.63078 8.80273 7.18905C8.80273 6.74715 8.4445 6.38908 8.00276 6.38908ZM10.4027 7.18905C10.4027 6.74715 10.7609 6.38908 11.2028 6.38908C11.6445 6.38908 12.0028 6.74715 12.0028 7.18905C12.0028 7.63078 11.6445 7.98902 11.2028 7.98902C10.7609 7.98902 10.4027 7.63078 10.4027 7.18905Z" fill="rgb(255,255,255)" fill-opacity="0" fill-rule="evenodd" />
			<path id="矢量 6" d="M4 7.18672C4 6.74672 4.36 6.38672 4.8 6.38672C5.24333 6.38672 5.6 6.74672 5.6 7.18672C5.6 7.63005 5.24333 7.98672 4.8 7.98672C4.36 7.98672 4 7.63005 4 7.18672ZM7.2 7.18672C7.2 6.74672 7.56 6.38672 8 6.38672C8.44333 6.38672 8.8 6.74672 8.8 7.18672C8.8 7.63005 8.44333 7.98672 8 7.98672C7.56 7.98672 7.2 7.63005 7.2 7.18672ZM11.2 6.38672C10.76 6.38672 10.4 6.74672 10.4 7.18672C10.4 7.63005 10.76 7.98672 11.2 7.98672C11.6433 7.98672 12 7.63005 12 7.18672C12 6.74672 11.6433 6.38672 11.2 6.38672Z" fill="rgb(255,255,255)" fill-opacity="0" fill-rule="evenodd" />
		</g>
	</g>
</svg>
