<svg viewBox="0 0 16 16.4688" xmlns="http://www.w3.org/2000/svg" xmlns:xlink="http://www.w3.org/1999/xlink" width="16.000000" height="16.468750" fill="none" customFrame="#000000">
	<rect id="心跳" width="16.000000" height="16.000000" x="0.000000" y="0.000000" />
	<path id="合并" d="M14.4666 7.27917L1.03345 7.27917L1.03345 13.9688C1.03558 14.0738 1.04852 14.2088 1.07178 14.309C1.08116 14.3493 1.09222 14.3892 1.10499 14.4287C1.11846 14.4704 1.13383 14.5116 1.15112 14.5524C1.18604 14.6348 1.22729 14.7128 1.27539 14.7865C1.31699 14.8503 1.36345 14.911 1.41499 14.9684C1.48994 15.0434 1.62866 15.1702 1.71558 15.2268C1.75751 15.2542 1.80104 15.2795 1.84597 15.3026C1.87978 15.32 1.91438 15.3361 1.94971 15.3511C2.01944 15.3787 2.12095 15.4135 2.19312 15.4303C2.28989 15.4527 2.38871 15.4653 2.48992 15.4682L13.4666 15.4688C13.5698 15.4663 13.7081 15.4532 13.8066 15.4303C13.8894 15.411 13.9707 15.3846 14.05 15.3511C14.1057 15.324 14.2327 15.2603 14.2842 15.2268C14.3426 15.1888 14.3983 15.1466 14.4514 15.1002C14.4713 15.0803 14.5663 14.9892 14.5849 14.9684C14.6364 14.911 14.6829 14.8503 14.7244 14.7865C14.7681 14.7192 14.8067 14.648 14.8397 14.5735C14.8625 14.5126 14.9133 14.3718 14.928 14.309C14.9504 14.2123 14.9631 14.1134 14.966 14.0122L14.9666 9.78223C14.9666 9.5022 15.1865 9.28223 15.4666 9.28223C15.7463 9.28223 15.9666 9.5022 15.9666 9.78223L15.9666 13.9688C15.9666 14.1527 15.947 14.3324 15.9084 14.5078C15.8786 14.6435 15.8371 14.7766 15.7842 14.9072C15.7281 15.0332 15.6291 15.2317 15.5542 15.3453C15.4889 15.4442 15.4164 15.5384 15.3367 15.6279C15.3037 15.6649 15.2695 15.7011 15.2341 15.7365C15.1411 15.8204 14.9465 15.9881 14.843 16.0564C14.7697 16.1048 14.6937 16.1493 14.6152 16.1898C14.5698 16.2132 14.5236 16.2353 14.4766 16.2561C14.335 16.3159 14.1533 16.3782 14.0056 16.4108C13.8301 16.4493 13.6504 16.4688 13.4666 16.4688L2.53345 16.4688C2.34937 16.4688 2.16968 16.4493 1.99438 16.4108C1.84692 16.3782 1.70166 16.3319 1.5603 16.2721C1.4794 16.2379 1.40102 16.1999 1.32521 16.1581C1.26765 16.1264 1.21157 16.0925 1.15698 16.0564C1.1212 16.0327 1.08599 16.0081 1.05138 15.9826C0.988163 15.9353 0.913912 15.8751 0.855174 15.8218C0.840461 15.8071 0.73641 15.7069 0.722118 15.6919C0.6878 15.6558 0.654694 15.619 0.622808 15.5813C0.558893 15.5059 0.499874 15.4272 0.445801 15.3453C0.402096 15.2791 0.361535 15.2106 0.324188 15.14C0.290185 15.0757 0.258846 15.0097 0.230225 14.942C0.206567 14.8862 0.185068 14.8299 0.165699 14.7732C0.135897 14.6859 0.111137 14.5975 0.0913086 14.5079C0.0527344 14.3324 0.0334473 14.1527 0.0334473 13.9688L0.0334473 5.33313C0.0334473 5.14917 0.0527344 4.96948 0.0913086 4.79395C0.109029 4.71394 0.130689 4.63483 0.156367 4.55659C0.178094 4.49039 0.202698 4.42482 0.230225 4.35986C0.245708 4.3232 0.261971 4.28705 0.279017 4.25143C0.328089 4.14886 0.38365 4.05058 0.445801 3.95654C0.538086 3.81665 0.644775 3.68628 0.765625 3.56531C0.886475 3.44446 1.01685 3.33777 1.15674 3.24548C1.25168 3.18262 1.3513 3.12649 1.45529 3.07695C1.48982 3.06051 1.52482 3.04479 1.5603 3.02979C1.59681 3.01433 1.63353 2.99979 1.67045 2.98616C1.77675 2.94691 1.88476 2.91521 1.99438 2.89111C2.15895 2.85495 2.32716 2.83563 2.49903 2.83336L3.47925 2.83313L3.47925 2.03564C3.47925 1.92676 3.49048 1.82031 3.51318 1.71631C3.53271 1.62622 3.56079 1.53796 3.59741 1.45166C3.63379 1.3656 3.67725 1.28418 3.72803 1.20764C3.7832 1.12451 3.84668 1.04688 3.9187 0.974976C3.99048 0.903076 4.06787 0.8396 4.15112 0.784546C4.22754 0.733765 4.30908 0.690186 4.39526 0.653687C4.48169 0.617188 4.56982 0.589111 4.65991 0.56958C4.76392 0.546997 4.87036 0.535645 4.97925 0.535645L11.02 0.535645C11.1289 0.535645 11.2354 0.546997 11.3394 0.56958C11.4292 0.589111 11.5178 0.617188 11.604 0.653687C11.6902 0.690186 11.7715 0.733643 11.8481 0.784424C11.9312 0.839478 12.0088 0.903076 12.0808 0.974976C12.1528 1.047 12.2163 1.12451 12.2712 1.20764C12.322 1.2843 12.3657 1.3656 12.4021 1.45166C12.4385 1.53796 12.4666 1.62622 12.4861 1.71631C12.5088 1.82031 12.52 1.92676 12.52 2.03564L12.52 2.83313L13.4666 2.83313C13.6254 2.83751 13.853 2.85745 14.0054 2.89099C14.1531 2.92346 14.2981 2.96985 14.4397 3.02979C14.5818 3.08997 14.7163 3.16174 14.843 3.24536C14.9392 3.30889 15.0309 3.37911 15.118 3.45611C15.151 3.48581 15.2025 3.53365 15.2341 3.56531C15.343 3.67769 15.4693 3.82823 15.5542 3.95654C15.6264 4.06621 15.6903 4.18221 15.7452 4.30368C15.762 4.34348 15.8023 4.4397 15.817 4.47997C15.8545 4.58309 15.8851 4.68776 15.9084 4.79407C15.9422 4.94756 15.9614 5.10431 15.9656 5.26435L15.9666 5.77917C15.9666 5.88794 15.9551 5.99426 15.9326 6.09814C15.9128 6.18823 15.885 6.27686 15.8484 6.36316C15.812 6.4491 15.7686 6.53027 15.718 6.60669C15.6628 6.68982 15.5991 6.76782 15.5271 6.83984C15.4553 6.91162 15.3779 6.9751 15.2949 7.03003C15.2183 7.08081 15.1365 7.12476 15.0505 7.16113C14.9641 7.19763 14.8757 7.22571 14.7856 7.24524C14.6819 7.26782 14.5752 7.27917 14.4666 7.27917ZM11.52 2.83301L4.47925 2.83301L4.47925 2.03564C4.47925 1.96655 4.49146 1.90259 4.51587 1.84375C4.54019 1.78898 4.57989 1.72798 4.62573 1.68213C4.67456 1.6333 4.72827 1.59668 4.78735 1.57227C4.84619 1.54785 4.91016 1.53564 4.97925 1.53564L11.02 1.53564C11.0891 1.53564 11.1533 1.54785 11.2122 1.57227C11.271 1.59668 11.325 1.6333 11.3738 1.68213C11.4059 1.71955 11.4597 1.7902 11.4788 1.83301C11.5032 1.89185 11.52 1.96655 11.52 2.03564L11.52 2.83301ZM14.4666 6.27917L1.03345 6.27917L1.03345 5.33313C1.03658 5.24058 1.0487 5.09642 1.068 5.00857C1.07951 4.95663 1.09391 4.90521 1.11119 4.85431C1.12312 4.81902 1.13643 4.78405 1.15112 4.74939C1.17873 4.69328 1.24645 4.55877 1.28007 4.5079C1.33527 4.42423 1.39961 4.34561 1.47309 4.27206C1.54611 4.19904 1.62421 4.13509 1.7074 4.08021C1.76293 4.04344 1.82165 4.01025 1.88358 3.98062C1.96317 3.94693 2.11035 3.89075 2.19312 3.87158C2.29594 3.84775 2.40108 3.835 2.50893 3.83332L13.4666 3.83313C13.5752 3.83463 13.7034 3.84755 13.8069 3.87158C13.8896 3.89075 13.9707 3.91724 14.05 3.95081C14.1323 3.9856 14.2104 4.02698 14.2842 4.07495C14.3563 4.12196 14.4244 4.17527 14.4883 4.23496C14.5482 4.29907 14.6778 4.44349 14.7249 4.51575C14.7598 4.56946 14.7912 4.62544 14.8192 4.6837C14.8283 4.70534 14.8666 4.79279 14.8746 4.81468C14.8947 4.86931 14.9116 4.92474 14.9251 4.98095C14.9473 5.07632 14.9628 5.18584 14.9658 5.28558L14.9666 5.77917C14.9666 5.84827 14.9543 5.91223 14.9299 5.97107C14.9055 6.03003 14.8689 6.08386 14.8201 6.13269C14.7712 6.18152 14.7173 6.21814 14.6584 6.24255C14.6007 6.26564 14.5335 6.27917 14.4666 6.27917ZM7.5 13.2565L7.5 11.89L6.1333 11.89C5.85327 11.89 5.6333 11.6699 5.6333 11.39C5.6333 11.11 5.85327 10.89 6.1333 10.89L7.5 10.89L7.5 9.52332C7.5 9.24329 7.71997 9.02332 8 9.02332C8.28003 9.02332 8.5 9.24329 8.5 9.52332L8.5 10.89L9.8667 10.89C10.1467 10.89 10.3667 11.11 10.3667 11.39C10.3667 11.6699 10.1467 11.89 9.8667 11.89L8.5 11.89L8.5 13.2565C8.5 13.5364 8.28003 13.7565 8 13.7565C7.71997 13.7565 7.5 13.5364 7.5 13.2565Z" fill="rgb(25,25,25)" fill-rule="evenodd" />
</svg>
