<svg viewBox="0 0 16 16" xmlns="http://www.w3.org/2000/svg" xmlns:xlink="http://www.w3.org/1999/xlink" width="16.000000" height="16.000000" fill="none">
	<rect id="日志" width="16.000000" height="16.000000" x="0.000000" y="0.000000" />
	<rect id="size" width="16.000000" height="16.000000" x="0.000000" y="0.000000" />
	<path id="形状" d="M14 10.8407L13 10.8407L13 3.83398C13 3.00732 12.3267 2.33398 11.5 2.33398L4.5 2.33398C3.67333 2.33398 3 3.00732 3 3.83398L3 11.834C3 12.6607 3.67333 13.334 4.5 13.334L10.5 13.334L10.5 14.334L4.5 14.334C3.12 14.334 2 13.214 2 11.834L2 3.83398C2 2.45398 3.12 1.33398 4.5 1.33398L11.5 1.33398C12.88 1.33398 14 2.45398 14 3.83398L14 10.8407ZM10.5 8.33398C10.7733 8.33398 11 8.10732 11 7.83398C11 7.56065 10.7733 7.33398 10.5 7.33398L5.5 7.33398C5.22667 7.33398 5 7.56065 5 7.83398C5 8.10732 5.22667 8.33398 5.5 8.33398L10.5 8.33398ZM7.5 11.334C7.77333 11.334 8 11.1073 8 10.834C8 10.5607 7.77333 10.334 7.5 10.334L5.5 10.334C5.22667 10.334 5 10.5607 5 10.834C5 11.1073 5.22667 11.334 5.5 11.334L7.5 11.334ZM10.5 5.33398C10.7733 5.33398 11 5.10732 11 4.83398C11 4.56065 10.7733 4.33398 10.5 4.33398L5.5 4.33398C5.22667 4.33398 5 4.56065 5 4.83398C5 5.10732 5.22667 5.33398 5.5 5.33398L10.5 5.33398ZM11.5 11.334L11.4133 11.334C11.18 11.3873 11 11.5873 11 11.834L11 12.6273L12.2933 11.334L11.5 11.334ZM10 11.834C10 11.0073 10.6733 10.334 11.5 10.334L13.5 10.334C13.9467 10.334 14.1667 10.874 13.8533 11.1873L10.8533 14.1873C10.54 14.5007 10 14.2807 10 13.834L10 11.834Z" fill="rgb(25,25,25)" fill-rule="nonzero" />
</svg>
