<svg viewBox="0 0 16 16" xmlns="http://www.w3.org/2000/svg" xmlns:xlink="http://www.w3.org/1999/xlink" width="16.000000" height="16.000000" fill="none">
	<rect id="会话" width="16.000000" height="16.000000" x="0.000000" y="0.000000" />
	<path id="path1" d="M1.37894e-06 7.99338C1.37894e-06 6.74338 -0.00333195 5.49338 1.37894e-06 4.24338C-0.00333195 3.63671 0.0733347 3.03338 0.220001 2.45005C0.550001 1.21005 1.35667 0.473381 2.59667 0.186714C3.21667 0.0533806 3.85333 -0.00995275 4.48667 4.72466e-05C6.88333 4.72466e-05 9.28 4.72466e-05 11.68 4.72466e-05C12.2833 -0.00328609 12.8867 0.0633806 13.4767 0.206714C14.7533 0.516714 15.52 1.32671 15.81 2.60005C15.9433 3.20005 16.0033 3.81338 15.9967 4.43005C15.9967 6.85338 15.9967 9.27671 15.9967 11.6967C16 12.2967 15.9333 12.8967 15.7933 13.48C15.48 14.7567 14.6667 15.5167 13.3967 15.81C12.7733 15.9434 12.14 16.0067 11.5033 15.9967C9.11667 15.9967 6.73 15.9967 4.34333 15.9967C3.73333 16.0034 3.12667 15.9334 2.53333 15.7934C1.25 15.4834 0.480001 14.67 0.190001 13.39C0.0400014 12.74 1.37894e-06 12.09 1.37894e-06 11.4334C1.37894e-06 10.2867 1.37894e-06 9.14005 1.37894e-06 7.99338Z" fill="rgb(255,255,255)" fill-opacity="0" fill-rule="evenodd" />
	<circle id="path2" cx="8" cy="8" r="8" fill="rgb(255,255,255)" fill-opacity="0" />
	<path id="path3" d="M1.16667 6.00008L1.16667 3.16675C1.16667 2.06008 2.06 1.16675 3.16667 1.16675L6 1.16675M6 14.8334L3.16667 14.8334C2.06 14.8334 1.16667 13.9367 1.16667 12.8334L1.16667 10.0001M14.8333 6.00008L14.8333 3.16675C14.8333 2.06008 13.9367 1.16675 12.8333 1.16675L10 1.16675M10 14.8334L12.8333 14.8334C13.9367 14.8334 14.8333 13.9367 14.8333 12.8334L14.8333 10.0001" fill-rule="nonzero" stroke="rgb(25,25,25)" stroke-linecap="round" stroke-linejoin="round" stroke-width="1" />
	<path id="path5" d="M2.16667 8L13.8333 8" stroke="rgb(25,25,25)" stroke-linecap="round" stroke-linejoin="round" stroke-width="1" />
	<path id="path4" d="M13.6667 3.50008L13.6667 6.00008C13.6667 6.46341 14.0333 6.83341 14.5 6.83341C14.9633 6.83341 15.3333 6.46341 15.3333 6.00008L15.3333 3.50008C15.3333 3.10675 15.2633 2.74341 15.1233 2.41008C14.9867 2.07675 14.78 1.77008 14.5033 1.49341C14.2267 1.21675 13.92 1.01008 13.5867 0.873415C13.2533 0.733415 12.89 0.666748 12.5 0.666748L10 0.666748C9.53334 0.666748 9.16667 1.03341 9.16667 1.50008C9.16667 1.96341 9.53334 2.33341 10 2.33341L12.5 2.33341C12.8867 2.33341 13.18 2.43008 13.3733 2.62341C13.5667 2.81675 13.6667 3.11008 13.6667 3.50008ZM0.666672 3.50008L0.666672 6.00008C0.666672 6.46341 1.03334 6.83341 1.50001 6.83341C1.96334 6.83341 2.33334 6.46341 2.33334 6.00008L2.33334 3.50008C2.33334 3.11008 2.43001 2.81675 2.62334 2.62341C2.81667 2.43008 3.11 2.33341 3.50001 2.33341L6 2.33341C6.46334 2.33341 6.83334 1.96341 6.83334 1.50008C6.83334 1.03341 6.46334 0.666748 6 0.666748L3.50001 0.666748C3.10667 0.666748 2.74334 0.733415 2.41001 0.873415C2.07667 1.01008 1.77 1.21675 1.49334 1.49341C1.21667 1.77008 1.01 2.07675 0.873338 2.41008C0.733338 2.74341 0.666672 3.10675 0.666672 3.50008ZM2.33334 10.0001C2.33334 9.53341 1.96334 9.16675 1.50001 9.16675C1.03334 9.16675 0.666672 9.53341 0.666672 10.0001L0.666672 12.5001C0.666672 12.8901 0.733338 13.2534 0.873338 13.5867C1.01 13.9201 1.21667 14.2267 1.49334 14.5034C1.77 14.7801 2.07667 14.9867 2.41001 15.1234C2.74334 15.2634 3.10667 15.3334 3.50001 15.3334L6 15.3334C6.46334 15.3334 6.83334 14.9634 6.83334 14.5001C6.83334 14.0334 6.46334 13.6667 6 13.6667L3.50001 13.6667C3.11 13.6667 2.81667 13.5667 2.62334 13.3734C2.43001 13.1801 2.33334 12.8867 2.33334 12.5001L2.33334 10.0001ZM15.3333 10.0001C15.3333 9.53341 14.9633 9.16675 14.5 9.16675C14.0333 9.16675 13.6667 9.53341 13.6667 10.0001L13.6667 12.5001C13.6667 12.8867 13.5667 13.1801 13.3733 13.3734C13.18 13.5667 12.8867 13.6667 12.5 13.6667L10 13.6667C9.53334 13.6667 9.16667 14.0334 9.16667 14.5001C9.16667 14.9634 9.53334 15.3334 10 15.3334L12.5 15.3334C12.89 15.3334 13.2533 15.2634 13.5867 15.1234C13.92 14.9867 14.2267 14.7801 14.5033 14.5034C14.78 14.2267 14.9867 13.9201 15.1233 13.5867C15.2633 13.2534 15.3333 12.8901 15.3333 12.5001L15.3333 10.0001Z" fill="rgb(255,255,255)" fill-opacity="0" fill-rule="evenodd" />
	<path id="path5 (边框)" d="M3.16666 7.16675L12.8333 7.16675C13.2967 7.16675 13.6667 7.53341 13.6667 8.00008C13.6667 8.46341 13.2967 8.83342 12.8333 8.83342L3.16666 8.83342C2.7 8.83342 2.33333 8.46341 2.33333 8.00008C2.33333 7.53341 2.7 7.16675 3.16666 7.16675Z" fill="rgb(255,255,255)" fill-opacity="0" fill-rule="evenodd" />
</svg>
