<svg viewBox="0 0 16 16" xmlns="http://www.w3.org/2000/svg" xmlns:xlink="http://www.w3.org/1999/xlink" width="16.000000" height="16.000000" fill="none" customFrame="#000000">
	<rect id="技能" width="16.000000" height="16.000000" x="0.000000" y="0.000000" />
	<path id="矢量 172" d="M8.58304 5.05615L8.83996 0.424899C8.86403 -0.00678918 7.98385 -0.16516 7.66841 0.214068L0.0771077 9.33866C-0.149644 9.61136 0.151168 9.94385 0.62509 9.94385L7.47213 9.94385L7.41671 10.9438L7.16004 15.5751C7.13597 16.0068 8.01615 16.1652 8.33159 15.7859L15.9229 6.66135C16.1496 6.38865 15.8488 6.05615 15.3749 6.05615L8.52756 6.05615L8.58304 5.05615ZM14.2936 7.05615L7.47055 7.05615L7.77016 1.65533L1.7064 8.94385L8.52909 8.94385L8.22976 14.3448L14.2936 7.05615Z" fill="rgb(25,25,25)" fill-rule="evenodd" />
</svg>
