<svg viewBox="0 0 32 32" xmlns="http://www.w3.org/2000/svg" xmlns:xlink="http://www.w3.org/1999/xlink" width="32.000000" height="32.000000" fill="none" customFrame="#000000">
	<rect id="操作/发送-激活" width="32.000000" height="32.000000" x="0.000000" y="0.000000" />
	<rect id="Rectangle" width="32.000000" height="32.000000" x="0.000000" y="0.000000" rx="16.000000" fill="rgb(0,102,255)" />
	<g id="编组 2">
		<rect id="矩形" width="19.555555" height="19.555555" x="6.222168" y="6.222168" fill="rgb(216,216,216)" fill-opacity="0" />
		<rect id="矩形" width="18.666666" height="18.666666" x="6.666613" y="6.666613" stroke="rgb(151,151,151)" stroke-opacity="0" stroke-width="0.888888896" />
		<g id="编组">
			<path id="Fill 1" d="M23.2861 7.91838L7.30154 15.5227C6.95267 15.6887 6.94771 16.1833 7.2934 16.3561L11.2757 18.3471C11.4676 18.4431 11.6981 18.4157 11.8625 18.2777L20.8186 10.7495C20.9675 10.6242 21.1634 10.8339 21.0282 10.974L13.31 18.9744C13.1495 19.1409 13.0718 19.3705 13.0984 19.6003L13.5764 23.7372C13.6226 24.1367 14.1207 24.292 14.3857 23.9895L16.3134 21.7882C16.4342 21.6504 16.407 21.4379 16.2557 21.3348L14.66 20.2469C14.5641 20.1813 14.6504 20.0345 14.7541 20.0865L16.8751 21.1467L19.3697 22.3939C19.6253 22.5216 19.9344 22.3902 20.0195 22.1176L24.2092 8.71978C24.383 8.16429 23.8117 7.66823 23.2861 7.91838Z" fill="rgb(255,255,255)" fill-rule="evenodd" />
			<path id="形状结合" d="M13.0968 19.4373C13.0945 19.4618 13.0933 19.4866 13.0933 19.5114C13.0933 19.541 13.095 19.5706 13.0984 19.6003L13.5764 23.7371C13.6226 24.1366 14.1207 24.2919 14.3858 23.9894L16.3134 21.7881C16.3644 21.7299 16.389 21.6583 16.389 21.5873C16.389 21.4903 16.3431 21.3943 16.2557 21.3347L14.66 20.2469C14.6409 20.2338 14.6291 20.2176 14.6231 20.2004L13.0968 19.4373Z" opacity="0.0500000007" fill="rgb(0,0,0)" fill-opacity="0" fill-rule="evenodd" />
		</g>
	</g>
</svg>
